<?xml version="1.0" encoding="utf-8"?>
<!-- Generator: Adobe Illustrator 19.0.0, SVG Export Plug-In . SVG Version: 6.00 Build 0)  -->
<svg version="1.1" id="Capa_1" xmlns="http://www.w3.org/2000/svg" xmlns:xlink="http://www.w3.org/1999/xlink" x="0px" y="0px"
	 viewBox="0 0 28.8 50" style="enable-background:new 0 0 28.8 50;" xml:space="preserve">
<style type="text/css">
	.st0{fill:#F6D600;}
</style>
<g id="XMLID_3803_">
	<path id="XMLID_3975_" class="st0" d="M25.1,0H3.7C1.6,0,0,1.6,0,3.7v42.7c0,2,1.6,3.7,3.7,3.7h21.5c2,0,3.7-1.6,3.7-3.7V3.7
		C28.8,1.6,27.2,0,25.1,0z M27.3,46.3c0,1.2-1,2.2-2.2,2.2H3.7c-1.2,0-2.2-1-2.2-2.2v-5.1h0.9h1.3h23.7V46.3z M27.3,39.7H3.7H2.4
		H1.5V7.3h25.9V39.7z M27.3,5.9H1.5V3.7c0-1.2,1-2.2,2.2-2.2h21.5c1.2,0,2.2,1,2.2,2.2V5.9z"/>
	<path id="XMLID_3978_" class="st0" d="M17.3,2.9h-2.9c-0.4,0-0.7,0.3-0.7,0.7s0.3,0.7,0.7,0.7h2.9c0.4,0,0.7-0.3,0.7-0.7
		S17.7,2.9,17.3,2.9z"/>
	<path id="XMLID_3981_" class="st0" d="M14.4,47.1c1.2,0,2.2-1,2.2-2.2c0-1.2-1-2.2-2.2-2.2c-1.2,0-2.2,1-2.2,2.2
		C12.2,46.1,13.2,47.1,14.4,47.1z M14.4,44.1c0.4,0,0.7,0.3,0.7,0.7c0,0.4-0.3,0.7-0.7,0.7c-0.4,0-0.7-0.3-0.7-0.7
		C13.7,44.5,14,44.1,14.4,44.1z"/>
	<circle id="XMLID_3982_" class="st0" cx="11.5" cy="3.7" r="0.7"/>
</g>
</svg>
