<?xml version="1.0" encoding="utf-8"?>
<!-- Generator: Adobe Illustrator 19.0.0, SVG Export Plug-In . SVG Version: 6.00 Build 0)  -->
<svg version="1.1" id="Capa_1" xmlns="http://www.w3.org/2000/svg" xmlns:xlink="http://www.w3.org/1999/xlink" x="0px" y="0px"
	 viewBox="0 0 40 50" style="enable-background:new 0 0 40 50;" xml:space="preserve">
<style type="text/css">
	.st0{fill:#F6D600;}
</style>
<g id="XMLID_852_">
	<g id="XMLID_3802_">
		<path id="XMLID_4006_" class="st0" d="M26.5,49.3H0.8c-0.5,0-0.8-0.4-0.8-0.8V0.8C0,0.4,0.4,0,0.8,0h30.5c0.5,0,0.8,0.4,0.8,0.8
			V22c0,0.5-0.4,0.8-0.8,0.8s-0.8-0.4-0.8-0.8V1.6H1.6v46h24.9c0.5,0,0.8,0.4,0.8,0.8C27.3,48.9,27,49.3,26.5,49.3z"/>
	</g>
	<g id="XMLID_408_">
		<path id="XMLID_4003_" class="st0" d="M31.4,50c-0.2,0-0.5-0.1-0.6-0.3c-0.3-0.4-8.1-9.9-8.1-14.5c0-4.8,3.9-8.7,8.7-8.7
			s8.7,3.9,8.7,8.7c0,4.6-7.7,14.1-8.1,14.5C31.8,49.9,31.6,50,31.4,50z M31.4,28.1c-3.9,0-7.1,3.2-7.1,7.1c0,3,4.6,9.6,7.1,12.7
			c2.4-3.1,7.1-9.7,7.1-12.7C38.4,31.3,35.2,28.1,31.4,28.1z"/>
	</g>
	<g id="XMLID_3789_">
		<circle id="XMLID_365_" class="st0" cx="31.4" cy="35.1" r="2.3"/>
	</g>
	<g id="XMLID_388_">
		<path id="XMLID_4000_" class="st0" d="M10.1,12.4H4.9c-0.5,0-0.8-0.4-0.8-0.8V6.3c0-0.5,0.4-0.8,0.8-0.8h5.3
			c0.5,0,0.8,0.4,0.8,0.8v5.3C11,12,10.6,12.4,10.1,12.4z M5.7,10.8h3.6V7.1H5.7V10.8z"/>
	</g>
	<g id="XMLID_3866_">
		<path id="XMLID_3997_" class="st0" d="M10.1,20.4H4.9c-0.5,0-0.8-0.4-0.8-0.8v-5.3c0-0.5,0.4-0.8,0.8-0.8h5.3
			c0.5,0,0.8,0.4,0.8,0.8v5.3C11,20.1,10.6,20.4,10.1,20.4z M5.7,18.8h3.6v-3.6H5.7V18.8z"/>
	</g>
	<g id="XMLID_3871_">
		<path id="XMLID_3994_" class="st0" d="M10.1,28.5H4.9c-0.5,0-0.8-0.4-0.8-0.8v-5.3c0-0.5,0.4-0.8,0.8-0.8h5.3
			c0.5,0,0.8,0.4,0.8,0.8v5.3C11,28.1,10.6,28.5,10.1,28.5z M5.7,26.9h3.6v-3.6H5.7V26.9z"/>
	</g>
	<g id="XMLID_364_">
		<path id="XMLID_3991_" class="st0" d="M10.1,36.7H4.9c-0.5,0-0.8-0.4-0.8-0.8v-5.3c0-0.5,0.4-0.8,0.8-0.8h5.3
			c0.5,0,0.8,0.4,0.8,0.8v5.3C11,36.3,10.6,36.7,10.1,36.7z M5.7,35h3.6v-3.6H5.7V35z"/>
	</g>
	<g id="XMLID_3869_">
		<path id="XMLID_3988_" class="st0" d="M18.7,12.4h-5.3c-0.5,0-0.8-0.4-0.8-0.8V6.3c0-0.5,0.4-0.8,0.8-0.8h5.3
			c0.5,0,0.8,0.4,0.8,0.8v5.3C19.5,12,19.2,12.4,18.7,12.4z M14.3,10.8h3.6V7.1h-3.6V10.8z"/>
	</g>
	<g id="XMLID_3865_">
		<path id="XMLID_3985_" class="st0" d="M18.7,20.4h-5.3c-0.5,0-0.8-0.4-0.8-0.8v-5.3c0-0.5,0.4-0.8,0.8-0.8h5.3
			c0.5,0,0.8,0.4,0.8,0.8v5.3C19.5,20.1,19.2,20.4,18.7,20.4z M14.3,18.8h3.6v-3.6h-3.6V18.8z"/>
	</g>
	<g id="XMLID_3825_">
		<path id="XMLID_3872_" class="st0" d="M18.7,28.5h-5.3c-0.5,0-0.8-0.4-0.8-0.8v-5.3c0-0.5,0.4-0.8,0.8-0.8h5.3
			c0.5,0,0.8,0.4,0.8,0.8v5.3C19.5,28.1,19.2,28.5,18.7,28.5z M14.3,26.9h3.6v-3.6h-3.6V26.9z"/>
	</g>
	<g id="XMLID_19_">
		<path id="XMLID_853_" class="st0" d="M13.3,48.5c-0.5,0-0.8-0.4-0.8-0.8V36.3c0-0.5,0.4-0.8,0.8-0.8h6.3c0.5,0,0.8,0.4,0.8,0.8
			v11.3c0,0.5-0.4,0.8-0.8,0.8s-0.8-0.4-0.8-0.8V37.2h-4.6v10.5C14.1,48.1,13.7,48.5,13.3,48.5z"/>
	</g>
	<g id="XMLID_3972_">
		<path id="XMLID_385_" class="st0" d="M27.3,12.4h-5.3c-0.5,0-0.8-0.4-0.8-0.8V6.3c0-0.5,0.4-0.8,0.8-0.8h5.3
			c0.5,0,0.8,0.4,0.8,0.8v5.3C28.1,12,27.8,12.4,27.3,12.4z M22.9,10.8h3.6V7.1h-3.6V10.8z"/>
	</g>
	<g id="XMLID_366_">
		<path id="XMLID_368_" class="st0" d="M27.3,20.4h-5.3c-0.5,0-0.8-0.4-0.8-0.8v-5.3c0-0.5,0.4-0.8,0.8-0.8h5.3
			c0.5,0,0.8,0.4,0.8,0.8v5.3C28.1,20.1,27.8,20.4,27.3,20.4z M22.9,18.8h3.6v-3.6h-3.6V18.8z"/>
	</g>
</g>
</svg>
