<?xml version="1.0" encoding="utf-8"?>
<!-- Generator: Adobe Illustrator 19.0.0, SVG Export Plug-In . SVG Version: 6.00 Build 0)  -->
<svg version="1.1" id="Capa_1" xmlns="http://www.w3.org/2000/svg" xmlns:xlink="http://www.w3.org/1999/xlink" x="0px" y="0px"
	 viewBox="0 0 50 33.4" style="enable-background:new 0 0 50 33.4;" xml:space="preserve">
<style type="text/css">
	.st0{fill:#F6D600;}
</style>
<path id="XMLID_272_" class="st0" d="M50,0.8L50,0.8c0-0.2-0.1-0.2-0.1-0.3c0,0,0,0,0,0l0-0.1h-0.1c-0.1-0.1-0.1-0.1-0.2-0.2
	c0,0,0,0-0.1,0c-0.1,0-0.1-0.1-0.2-0.1l0,0c0,0,0,0,0,0c-0.1,0-0.2,0-0.3,0c0,0,0,0-0.1,0L0.7,10C0.4,10,0.1,10.4,0,10.7
	c-0.1,0.4,0.1,0.8,0.5,1L14.2,19l2.4,13.3c0,0,0,0,0,0c0,0.1,0,0.1,0,0.2c0,0,0,0.1,0,0.1c0,0.1,0.1,0.2,0.1,0.2c0,0,0,0,0,0.1
	l0.1,0.1c0,0.1,0.1,0.1,0.1,0.1c0,0,0,0,0,0c0,0,0,0,0,0c0.1,0,0.1,0.1,0.2,0.1l0.1,0c0.1,0,0.2,0,0.3,0l0,0c0,0,0,0,0,0
	c0.2,0,0.5-0.1,0.7-0.3l9.1-6.1l9.5,6.2c0.2,0.1,0.3,0.2,0.5,0.2c0.1,0,0.2,0,0.3-0.1c0.3-0.1,0.5-0.3,0.6-0.6L49.9,1.3l0-0.1
	c0,0,0,0,0,0c0,0,0-0.1,0-0.1h0c0,0,0,0,0-0.1C50,1,50,0.9,50,0.8z M42.5,3.3l-27.4,14l-11.4-6L42.5,3.3z M47.1,3.6L37,31l-14.4-9.4
	L47.1,3.6z M39.1,7.1L20.3,20.9c0,0-0.1,0.1-0.1,0.1l0,0c0,0,0,0-0.1,0.1c0,0,0,0,0,0.1c0,0.1-0.1,0.1-0.1,0.2c0,0,0,0,0,0l0,0
	l-2.1,7l-1.7-9.5L39.1,7.1z M25.7,25.9l-6.4,4.3l2.1-7L25.7,25.9z"/>
</svg>
