<?xml version="1.0" encoding="utf-8"?>
<!-- Generator: Adobe Illustrator 19.0.0, SVG Export Plug-In . SVG Version: 6.00 Build 0)  -->
<svg version="1.0" id="Capa_1" xmlns="http://www.w3.org/2000/svg" xmlns:xlink="http://www.w3.org/1999/xlink" x="0px" y="0px"
	 viewBox="0 0 51.3 52.1" style="enable-background:new 0 0 51.3 52.1;" xml:space="preserve">
<path id="XMLID_469_" class="fill-social" d="M25.9,0.6C11.6,0.6,0.1,12.1,0.1,26.4c0,14.2,11.5,25.8,25.8,25.8c14.2,0,25.8-11.5,25.8-25.8
	C51.6,12.1,40.1,0.6,25.9,0.6z M32.6,24l-0.2,2.4h-4.5c0,6.8,0,15.3,0,15.3h-6.1c0,0,0-8.3,0-15.3h-3.1V24v-3.7h3v-2.8
	c0-2.5,1.2-6.4,6.4-6.4l4.7,0v5.2c0,0-2.9,0-3.4,0c-0.6,0-1.3,0.3-1.3,1.5v2.4H33L32.6,24z"/>
</svg>
