<?xml version="1.0" encoding="utf-8"?>
<!-- Generator: Adobe Illustrator 19.0.0, SVG Export Plug-In . SVG Version: 6.00 Build 0)  -->
<svg version="1.0" id="Capa_1" xmlns="http://www.w3.org/2000/svg" xmlns:xlink="http://www.w3.org/1999/xlink" x="0px" y="0px"
	 viewBox="0 0 51.3 52.1" style="enable-background:new 0 0 51.3 52.1;" xml:space="preserve">
<g id="XMLID_50_">
	<g id="XMLID_203_">
		<g id="XMLID_204_">
			<g id="XMLID_205_">
				<path id="XMLID_206_" d="M25.9,0.6C11.6,0.6,0.1,12.1,0.1,26.4c0,14.2,11.5,25.8,25.8,25.8c14.2,0,25.8-11.5,25.8-25.8
					C51.6,12.1,40.1,0.6,25.9,0.6z M26.9,32.5c-1.3,1.4-3,2.1-4.9,2.3c-3.9,0.4-7.5-1.8-8.9-5.4c-0.6-1.5-0.7-3-0.4-4.5
					c0.6-3.4,3.3-6.3,6.9-6.9c2.6-0.4,4.9,0.2,6.9,1.9c0.1,0.1,0.2,0.1,0.2,0.2c-0.9,0.9-1.7,1.7-2.5,2.5c-0.6-0.5-1.3-0.9-2.1-1.1
					c-2.3-0.5-4.6,0.7-5.5,2.8c-0.2,0.4-0.3,0.7-0.4,1.1c-0.5,2.8,1.3,5.5,4.1,5.9c2.3,0.4,4.4-0.6,5.1-2.7c0.1-0.2,0.1-0.3,0.1-0.5
					c-1.5,0-3,0-4.5,0c0-1.1,0-2.2,0-3.3c0-0.1,0.2-0.2,0.3-0.2c0.5,0,1.1,0,1.6,0c1.8,0,3.7,0,5.5,0c0.4,0,0.6,0.1,0.7,0.5
					C29.4,27.9,28.9,30.4,26.9,32.5z M39.2,25.4c0,0.5,0,1.1,0,1.6c-1,0-1.9,0-2.9,0c0,1,0,2,0,2.9c-0.7,0-1.4,0-2.1,0
					c0-0.9,0-1.9,0-2.9c-0.5,0-0.9,0-1.4,0c-0.5,0-1,0-1.6-0.1c0-0.5,0-1.1-0.1-1.6c0-0.1,0-0.3,0-0.5c1,0,2,0,3,0
					c0-0.2,0-0.3,0-0.5c0-0.8,0-1.6,0-2.5c0.7,0,1.3,0,2,0c0.1,0,0.2,0.2,0.2,0.3c0,0.7,0,1.4,0,2.1c0,0.1,0,0.2,0,0.4
					c0,0,0,0.1,0,0.1c0.2,0,0.4,0,0.6,0c0.8,0,1.6,0,2.4,0C39.2,25,39.2,25.2,39.2,25.4z"/>
			</g>
		</g>
	</g>
</g>
</svg>
