<?xml version="1.0" encoding="utf-8"?>
<!-- Generator: Adobe Illustrator 19.0.0, SVG Export Plug-In . SVG Version: 6.00 Build 0)  -->
<svg version="1.0" id="Capa_1" xmlns="http://www.w3.org/2000/svg" xmlns:xlink="http://www.w3.org/1999/xlink" x="0px" y="0px"
	 viewBox="0 0 51.3 52.1" style="enable-background:new 0 0 51.3 52.1;" xml:space="preserve">
<g id="XMLID_499_">
	<path id="XMLID_49_" d="M32.3,21.3c0.1,0.3,0.2,0.6,0.3,0.9c0.2,0.7,0.3,1.5,0.3,2.3c0,4.6-3.7,8.3-8.3,8.3s-8.3-3.7-8.3-8.3
		c0-0.8,0.1-1.5,0.3-2.3c0.1-0.3,0.2-0.6,0.3-0.9h-4.5v1.6v10.9c0,1.6,1.3,2.9,2.9,2.9h18.6c1.6,0,2.9-1.3,2.9-2.9V22.9v-1.6H32.3z"
		/>
	<path id="XMLID_524_" d="M24.6,29.8c2.9,0,5.3-2.4,5.3-5.4c0-1-0.3-1.8-0.7-2.6c-0.1-0.2-0.2-0.3-0.3-0.5c-1-1.4-2.5-2.2-4.3-2.2
		c-1.8,0-3.4,0.9-4.3,2.2c-0.1,0.2-0.2,0.3-0.3,0.5c-0.4,0.8-0.7,1.7-0.7,2.6C19.3,27.4,21.7,29.8,24.6,29.8z"/>
	<path id="XMLID_500_" d="M25.7,0.6C11.5,0.6,0.1,12.1,0.1,26.4c0,14.2,11.5,25.8,25.6,25.8c14.1,0,25.6-11.5,25.6-25.8
		C51.3,12.1,39.8,0.6,25.7,0.6z M40.8,23.2v2.3v10.2c0,3.3-2.6,5.9-5.9,5.9H16.4c-3.2,0-5.9-2.6-5.9-5.9V25.5v-2.3V17
		c0-3.3,2.6-5.9,5.9-5.9H35c3.2,0,5.9,2.6,5.9,5.9V23.2z"/>
</g>
<rect id="XMLID_48_" x="30.9" y="12.7" width="5" height="5.3"/>
</svg>
