<?xml version="1.0" encoding="utf-8"?>
<!-- Generator: Adobe Illustrator 19.0.0, SVG Export Plug-In . SVG Version: 6.00 Build 0)  -->
<svg version="1.0" id="Capa_1" xmlns="http://www.w3.org/2000/svg" xmlns:xlink="http://www.w3.org/1999/xlink" x="0px" y="0px"
	 viewBox="0 0 51.3 52.1" style="enable-background:new 0 0 51.3 52.1;" xml:space="preserve">
<g id="XMLID_48_">
	<path id="XMLID_682_" d="M25.9,0.6C11.6,0.6,0.1,12.1,0.1,26.4c0,14.2,11.5,25.8,25.8,25.8c14.2,0,25.8-11.5,25.8-25.8
		C51.6,12.1,40.1,0.6,25.9,0.6z M17.7,25.5v16.2h-7.1V26.7v-5.4h7.1V25.5z M14.2,18.2c-2,0-3.6-1.6-3.6-3.6c0-2,1.6-3.6,3.6-3.6
		s3.6,1.6,3.6,3.6C17.7,16.6,16.1,18.2,14.2,18.2z M41.1,30.5v11.2H35v-9.9c0-2.4-0.3-5.4-3.5-5.4c-3.3,0-3.8,2.6-3.8,5.2v10.1h-5.9
		V25.2v-3.9h5.7V24h0.1c0.8-1.6,2.9-2.7,6-2.7c5.2,0,6.9,2.4,7.4,6.2C41.1,28.4,41.1,29.4,41.1,30.5L41.1,30.5z"/>
</g>
</svg>
