<?xml version="1.0" encoding="utf-8"?>
<!-- Generator: Adobe Illustrator 19.0.0, SVG Export Plug-In . SVG Version: 6.00 Build 0)  -->
<svg version="1.0" id="Capa_1" xmlns="http://www.w3.org/2000/svg" xmlns:xlink="http://www.w3.org/1999/xlink" x="0px" y="0px"
	 viewBox="0 0 371 421.8" style="enable-background:new 0 0 371 421.8;" xml:space="preserve">
<style type="text/css">
	.st0{fill-rule:evenodd;clip-rule:evenodd;}
</style>
<g id="XMLID_621_">
	<g id="XMLID_3821_">
		<g id="XMLID_3901_">
			<polygon id="XMLID_4057_" class="st0" points="58,51.8 58,32.6 58,5.3 10.8,51.8 			"/>
			<polygon id="XMLID_4056_" class="st0" points="60.5,148.2 131.1,78.3 60.4,6.4 			"/>
			<polygon id="XMLID_4055_" class="st0" points="138.6,211.7 197.1,18.2 63.2,150.4 			"/>
			<polygon id="XMLID_4054_" class="st0" points="138.6,211.7 363.2,18.2 197.1,18.2 			"/>
			<polygon id="XMLID_4053_" class="st0" points="169.6,189.4 141.1,213.8 143.9,216.1 192,255.3 192,255.3 192,170.5 181.1,179.6 
							"/>
			<polygon id="XMLID_4052_" class="st0" points="131.1,78.3 60.4,6.4 60.4,83.8 65.2,88.6 60.4,93.3 60.5,148.1 			"/>
			<polygon id="XMLID_4051_" class="st0" points="60.4,93.3 65.2,88.6 60.4,83.8 			"/>
			<path id="XMLID_4050_" class="st0" d="M54.4,8.8l-43.6,43L54.4,8.8z"/>
			<path id="XMLID_3902_" class="st0" d="M195.6,167.3v-0.1c-0.1,0-0.1,0.1-0.1,0.1c0,0.1,0.1,0.1,0.1,0.1c0.1,0,0.1-0.1,0.1-0.1
				c0-0.1-0.1-0.1-0.1-0.1V167.3z"/>
		</g>
	</g>
	<path id="XMLID_683_" class="st0" d="M20.1,319.9c0,5.2,1.5,9.6,4.6,13.1c3.1,3.5,6.8,5.3,11.3,5.3c4.5,0,8.3-1.7,11.3-5.3
		c3-3.5,4.5-7.9,4.5-13.1c0-5.3-1.5-9.7-4.5-13.2c-3-3.5-6.8-5.3-11.3-5.3c-4.5,0-8.2,1.8-11.3,5.3
		C21.6,310.3,20.1,314.7,20.1,319.9L20.1,319.9z M5.3,319.9c0-4.5,0.8-8.6,2.3-12.5c1.5-3.9,3.8-7.3,6.8-10.4
		c2.8-2.9,6.1-5.2,9.8-6.7c3.7-1.6,7.6-2.4,11.7-2.4c4.1,0,8,0.8,11.7,2.4c3.7,1.6,7.1,3.8,10,6.8c2.9,3,5.1,6.4,6.6,10.2
		c1.5,3.9,2.3,8.1,2.3,12.6c0,3.7-0.5,7.3-1.6,10.6c-1.1,3.3-2.6,6.3-4.7,9.1c-2.9,3.9-6.5,6.9-10.8,9.1c-4.3,2.2-8.8,3.2-13.6,3.2
		c-4.1,0-7.9-0.8-11.7-2.4c-3.7-1.6-7-3.8-9.9-6.8c-3-3.1-5.2-6.5-6.8-10.4C6.1,328.5,5.3,324.4,5.3,319.9L5.3,319.9z M92.8,300.9
		h-2.4v16.6h3c3.6,0,6.4-0.7,8.3-2.2c1.9-1.5,2.8-3.6,2.8-6.3c0-2.9-0.9-4.9-2.8-6.2C100,301.5,96.9,300.9,92.8,300.9L92.8,300.9z
		 M76.5,349.9v-60h15.4c4.9,0,8.8,0.3,11.5,1c2.7,0.6,5.1,1.7,7.2,3.2c2.2,1.6,4,3.6,5.2,5.9c1.2,2.4,1.8,4.8,1.8,7.5
		c0,3.8-1,7.1-2.9,9.9c-1.9,2.8-4.7,5.1-8.3,6.7l18.3,25.8h-16.4l-16-23.6h-2v23.6H76.5L76.5,349.9z M130.7,349.9v-60H145v60H130.7
		L130.7,349.9z M209.9,316.6v29.2c-4,2-8,3.5-11.8,4.5c-3.8,1-7.5,1.5-11.1,1.5c-9.2,0-16.7-3-22.8-9c-6-6-9-13.6-9-22.8
		c0-9.3,3-16.9,9.2-23c6.1-6.1,13.9-9.1,23.2-9.1c3.5,0,6.9,0.5,10.1,1.5c3.2,1,6.3,2.4,9.2,4.4l-1.5,15c-2.8-2.8-5.6-4.9-8.3-6.2
		c-2.8-1.3-5.7-2-8.7-2c-5.4,0-9.8,1.8-13.4,5.4c-3.5,3.6-5.3,8.1-5.3,13.5c0,5.7,1.7,10.3,5.1,13.9c3.4,3.6,7.8,5.4,13.2,5.4
		c1.3,0,2.5-0.1,3.8-0.3c1.3-0.2,2.6-0.5,4-1v-8.7h-11.4v-12.2H209.9L209.9,316.6z M234.9,330.9h15.8l-7.8-18.8L234.9,330.9
		L234.9,330.9z M212.4,349.9l30.6-61.9h0.9l29.9,61.9h-15l-3.8-8.7h-24.3l-3.9,8.7H212.4L212.4,349.9z M273.4,349.9h12.8l5.3-27.8
		l17.3,30h0.9l16.1-29.6l5.1,27.4h13.6L332,288h-1.1l-21.3,39.1L286.9,288h-1L273.4,349.9L273.4,349.9z M353.4,349.9v-60h14.3v60
		H353.4L353.4,349.9z M34.1,393.6c-1.5-1.6-3.1-2.7-4.6-3.5c-1.6-0.7-3.2-1.1-4.9-1.1c-3,0-5.4,1-7.3,3.1c-1.9,2-2.8,4.7-2.8,7.9
		c0,3.2,0.9,5.8,2.8,7.8c1.9,2,4.3,3,7.3,3c1.8,0,3.5-0.4,5.3-1.1c1.8-0.7,3.5-1.9,5.3-3.3l-0.5,9.3c-1.5,1-3.1,1.8-4.9,2.3
		c-1.8,0.5-3.6,0.8-5.6,0.8c-2.1,0-4-0.3-5.9-1c-1.9-0.6-3.6-1.6-5.2-2.9c-2.2-1.8-4-3.9-5.2-6.5C6.6,405.8,6,403,6,400
		c0-2.6,0.4-5,1.3-7.3c0.9-2.3,2.2-4.3,3.9-6c1.7-1.7,3.7-3.1,5.9-4c2.2-0.9,4.6-1.4,7.1-1.4c2,0,3.8,0.3,5.6,0.8
		c1.8,0.5,3.5,1.4,5.1,2.5L34.1,393.6L34.1,393.6z M75.6,400c0,3,0.9,5.6,2.7,7.6c1.8,2.1,4,3.1,6.6,3.1c2.6,0,4.8-1,6.6-3.1
		c1.8-2,2.6-4.6,2.6-7.7c0-3.1-0.9-5.6-2.6-7.7c-1.8-2.1-4-3.1-6.6-3.1c-2.6,0-4.8,1-6.6,3.1C76.5,394.4,75.6,397,75.6,400L75.6,400
		z M67,400c0-2.6,0.5-5,1.4-7.3c0.9-2.3,2.2-4.3,3.9-6.1c1.6-1.7,3.5-3,5.7-3.9c2.2-0.9,4.5-1.4,6.8-1.4c2.4,0,4.7,0.5,6.8,1.4
		c2.2,0.9,4.1,2.3,5.8,4c1.7,1.7,3,3.7,3.9,6c0.9,2.3,1.3,4.7,1.3,7.3c0,2.2-0.3,4.2-0.9,6.2c-0.6,1.9-1.5,3.7-2.7,5.3
		c-1.7,2.3-3.8,4-6.3,5.3c-2.5,1.3-5.1,1.9-7.9,1.9c-2.4,0-4.6-0.5-6.8-1.4c-2.2-0.9-4.1-2.3-5.8-4c-1.7-1.8-3.1-3.8-3.9-6.1
		C67.4,405,67,402.6,67,400L67,400z M147.2,418.7l-14.7-36.1h8.5l6.8,18.9l7.3-20h0.6l7.4,20l6.8-18.9h7.8l-14.6,36.1h-0.5l-7.5-20
		l-7.3,20H147.2L147.2,418.7z M216.3,400c0,3,0.9,5.6,2.7,7.6c1.8,2.1,3.9,3.1,6.5,3.1c2.6,0,4.8-1,6.6-3.1c1.8-2,2.7-4.6,2.7-7.7
		c0-3.1-0.9-5.6-2.7-7.7c-1.8-2.1-4-3.1-6.6-3.1c-2.6,0-4.8,1-6.5,3.1C217.2,394.4,216.3,397,216.3,400L216.3,400z M207.7,400
		c0-2.6,0.5-5,1.4-7.3c0.9-2.3,2.2-4.3,3.9-6.1c1.6-1.7,3.5-3,5.7-3.9c2.2-0.9,4.5-1.4,6.8-1.4c2.4,0,4.7,0.5,6.9,1.4
		c2.2,0.9,4.1,2.3,5.8,4c1.7,1.7,3,3.7,3.9,6c0.9,2.3,1.3,4.7,1.3,7.3c0,2.2-0.3,4.2-0.9,6.2c-0.6,1.9-1.5,3.7-2.7,5.3
		c-1.7,2.3-3.8,4-6.3,5.3c-2.5,1.3-5.1,1.9-7.9,1.9c-2.3,0-4.6-0.5-6.8-1.4c-2.2-0.9-4.1-2.3-5.8-4c-1.7-1.8-3.1-3.8-3.9-6.1
		C208.1,405,207.7,402.6,207.7,400L207.7,400z M287.3,388.9h-1.4v9.7h1.8c2.1,0,3.7-0.4,4.9-1.3c1.1-0.8,1.6-2.1,1.6-3.7
		c0-1.7-0.5-2.9-1.6-3.6C291.4,389.3,289.7,388.9,287.3,388.9L287.3,388.9z M277.8,417.5v-35h9c2.9,0,5.1,0.2,6.7,0.6
		c1.6,0.4,3,1,4.2,1.9c1.3,0.9,2.3,2.1,3,3.5c0.7,1.4,1.1,2.8,1.1,4.4c0,2.2-0.5,4.1-1.7,5.8c-1.1,1.7-2.7,2.9-4.8,3.9l10.7,15h-9.5
		l-9.3-13.7h-1.2v13.7H277.8L277.8,417.5z M337.8,417.5v-35h8.3v15.2l11.6-15.2h9.9l-13.2,16.7l14.2,18.3h-10.1l-12.5-16.1v16.1
		H337.8z"/>
</g>
</svg>
