<?xml version="1.0" encoding="utf-8"?>
<!-- Generator: Adobe Illustrator 19.0.0, SVG Export Plug-In . SVG Version: 6.00 Build 0)  -->
<svg version="1.1" id="Capa_1" xmlns="http://www.w3.org/2000/svg" xmlns:xlink="http://www.w3.org/1999/xlink" x="0px" y="0px"
	 viewBox="0 0 50 50" style="enable-background:new 0 0 50 50;" xml:space="preserve">
<style type="text/css">
	.st0{fill:#F6D600;}
</style>
<g id="XMLID_248_">
	<path id="XMLID_250_" class="st0" d="M42.7,7.3C38,2.6,31.7,0,25,0S12,2.6,7.3,7.3C2.6,12.1,0,18.3,0,25s2.6,13,7.3,17.7
		c4.7,4.7,11,7.3,17.7,7.3s13-2.6,17.7-7.3c4.7-4.7,7.3-11,7.3-17.7S47.4,12,42.7,7.3L42.7,7.3z M47.7,23.9H38
		c-0.1-3.9-0.6-7.6-1.6-10.9c1.8-0.9,3.6-2.1,5.2-3.6C45.2,13.3,47.5,18.3,47.7,23.9L47.7,23.9z M26.1,26.1h9.7
		c-0.1,3.6-0.6,6.9-1.4,10c-2.6-1.1-5.4-1.7-8.3-1.8V26.1z M40,7.9c-1.3,1.2-2.7,2.1-4.2,2.9c-0.4-1.1-0.8-2.1-1.3-3.1
		c-1-1.9-2.1-3.5-3.3-4.7C34.5,4,37.5,5.7,40,7.9L40,7.9z M26.1,2.6c2.3,0.5,4.5,2.7,6.3,6.2c0.5,0.9,0.9,2,1.3,3
		c-2.4,1-5,1.6-7.6,1.7V2.6z M34.4,14c0.8,3,1.3,6.4,1.4,9.9h-9.7v-8.1C29,15.6,31.8,15,34.4,14L34.4,14z M23.9,23.9h-9.7
		c0.1-3.5,0.6-6.9,1.4-9.9c2.6,1.1,5.4,1.7,8.3,1.8L23.9,23.9L23.9,23.9z M23.9,2.6v10.9c-2.6-0.1-5.2-0.7-7.6-1.7
		c0.4-1.1,0.8-2.1,1.3-3C19.3,5.3,21.6,3.1,23.9,2.6L23.9,2.6z M18.9,3.1c-1.2,1.2-2.3,2.8-3.3,4.7c-0.5,1-0.9,2-1.3,3.1
		C12.7,10,11.3,9.1,10,7.9C12.5,5.7,15.5,4,18.9,3.1L18.9,3.1z M8.4,9.5c1.6,1.4,3.3,2.6,5.2,3.6c-0.9,3.3-1.5,7-1.6,10.9H2.3
		C2.6,18.3,4.8,13.3,8.4,9.5L8.4,9.5z M2.3,26.1H12c0.1,3.9,0.6,7.6,1.6,10.9c-1.8,0.9-3.6,2.1-5.1,3.5C4.8,36.8,2.6,31.7,2.3,26.1
		L2.3,26.1z M10.1,42.1c1.3-1.1,2.7-2.1,4.2-2.9c0.4,1.1,0.8,2.1,1.3,3c1,1.9,2.1,3.5,3.3,4.7C15.6,46,12.6,44.3,10.1,42.1
		L10.1,42.1z M23.9,47.4c-2.3-0.5-4.5-2.7-6.3-6.2c-0.5-0.9-0.9-1.9-1.3-3c2.4-1,4.9-1.6,7.6-1.7V47.4z M15.6,36.1
		c-0.8-3-1.3-6.4-1.4-10h9.7v8.2C21,34.4,18.2,35.1,15.6,36.1L15.6,36.1z M26.1,47.4V36.6c2.6,0.1,5.2,0.7,7.6,1.7
		c-0.4,1.1-0.8,2-1.3,3C30.7,44.7,28.5,46.9,26.1,47.4L26.1,47.4z M31.2,46.9c1.2-1.2,2.3-2.8,3.3-4.7c0.5-0.9,0.9-1.9,1.3-3
		c1.5,0.8,2.9,1.8,4.2,2.9C37.5,44.3,34.5,46,31.2,46.9L31.2,46.9z M41.6,40.6c-1.6-1.4-3.3-2.6-5.1-3.5c1-3.3,1.5-7.1,1.6-10.9h9.7
		C47.5,31.7,45.2,36.8,41.6,40.6L41.6,40.6z M41.6,40.6"/>
</g>
</svg>
